<?xml version="1.0" ?><svg style="enable-background:new 0 0 64 64;" version="1.1" viewBox="0 0 64 64" xml:space="preserve" xmlns="http://www.w3.org/2000/svg" xmlns:xlink="http://www.w3.org/1999/xlink"><style type="text/css">
	.st0{fill:#231F20;}
	.st1{fill:none;stroke:#231F20;stroke-width:2;stroke-miterlimit:10;}
	.st2{fill:#FFFFFF;}
</style><g id="Grid"/><g id="Proyektor"/><g id="Laptop"/><g id="Papan"/><g id="Kursi"/><g id="Meja"/><g id="Book"/><g id="News"/><g id="Note"/><g id="Calculator"/><g id="Ruler"/><g id="Pencil"/><g id="Clock"/><g id="Document"/><g id="Galeri"><g><g><g><path class="st0" d="M16.4,25.9c-4.9,0.9-9.2-3.3-8.2-8.2c0.5-2.8,2.7-5,5.5-5.5c4.9-0.9,9.2,3.3,8.2,8.2      C21.3,23.1,19.1,25.3,16.4,25.9z M16.4,14.2c-3.8-1-7.2,2.4-6.2,6.2c0.4,1.7,1.8,3,3.5,3.5c3.8,1,7.2-2.4,6.2-6.2      C19.4,16,18,14.6,16.4,14.2z"/></g></g><g><g><path class="st0" d="M45,26C45,26,45,26,45,26c-0.5,0-0.9-0.3-1.1-0.7c-0.1-0.3-0.2-0.5-0.3-0.7c-0.1,0.2-0.3,0.5-0.4,0.7      l-2.2-0.6c0.3-0.7,1.1-2.3,2.6-2.3c0.6,0,1.1,0.2,1.4,0.6c0.4-0.3,0.9-0.6,1.5-0.6c1.6,0,2.2,1.7,2.5,2.3l-2.2,0.6      c-0.1-0.3-0.2-0.5-0.3-0.7c-0.1,0.2-0.3,0.5-0.4,0.7C46,25.7,45.5,26,45,26z"/></g></g><g><g><path class="st0" d="M54,22C54,22,54,22,54,22c-0.5,0-0.9-0.3-1.1-0.7c-0.1-0.3-0.2-0.5-0.3-0.7c-0.1,0.2-0.3,0.5-0.4,0.7      l-2.2-0.6c0.3-0.7,1.1-2.3,2.6-2.3c0.6,0,1.1,0.2,1.4,0.6c0.4-0.3,0.9-0.6,1.5-0.6c1.6,0,2.2,1.7,2.5,2.3l-2.2,0.6      c-0.1-0.3-0.2-0.5-0.3-0.7c-0.1,0.2-0.3,0.5-0.4,0.7C55,21.7,54.5,22,54,22z"/></g></g><g><path class="st0" d="M60,58H4c-1.1,0-2-0.9-2-2V8c0-1.1,0.9-2,2-2h56c1.1,0,2,0.9,2,2v48C62,57.1,61.1,58,60,58z M4,8v48h56l0-48     H4z"/></g><g><polygon class="st0" points="25.2,44.5 14.9,35.3 3.6,43.8 2.4,42.2 15.1,32.7 24.8,41.5 37,24.3 46.1,37.4 56.1,27.5 61.8,35.4      60.2,36.6 55.9,30.5 45.9,40.6 37,27.7    "/></g></g></g><g id="Storage_Pencil"/><g id="Tras_Can"/><g id="Stempel"/><g id="_x2E_.."/><g id="Clip"/><g id="Board"/></svg>